<svg width="17" height="18" viewBox="0 0 17 18" fill="none" xmlns="http://www.w3.org/2000/svg">
<path d="M15.8471 8.0917H13.2402L15.329 6.0029C15.4052 5.92682 15.4657 5.83645 15.507 5.73696C15.5482 5.63748 15.5695 5.53083 15.5695 5.42313C15.5695 5.31543 15.5482 5.20878 15.507 5.1093C15.4657 5.00981 15.4052 4.91944 15.329 4.84336C15.0083 4.52264 14.4819 4.52264 14.1612 4.84336L10.9129 8.0917H9.26816V6.44697L12.5165 3.19864C12.8372 2.87792 12.8372 2.3516 12.5165 2.03088C12.4404 1.95465 12.3501 1.89416 12.2506 1.8529C12.1511 1.81163 12.0444 1.79039 11.9367 1.79039C11.829 1.79039 11.7224 1.81163 11.6229 1.8529C11.5234 1.89416 11.433 1.95465 11.357 2.03088L9.26816 4.11968V1.51279C9.26816 1.06049 8.8981 0.69043 8.4458 0.69043C7.9935 0.69043 7.62344 1.06049 7.62344 1.51279V4.11968L5.53463 2.03088C5.45855 1.95465 5.36819 1.89416 5.2687 1.8529C5.16922 1.81163 5.06257 1.79039 4.95487 1.79039C4.84717 1.79039 4.74052 1.81163 4.64104 1.8529C4.54155 1.89416 4.45118 1.95465 4.3751 2.03088C4.05438 2.3516 4.05438 2.87792 4.3751 3.19864L7.62344 6.44697V8.0917H5.97871L2.73038 4.84336C2.40965 4.52264 1.88334 4.52264 1.56262 4.84336C1.48638 4.91944 1.4259 5.00981 1.38463 5.1093C1.34337 5.20878 1.32212 5.31543 1.32212 5.42313C1.32212 5.53083 1.34337 5.63748 1.38463 5.73696C1.4259 5.83645 1.48638 5.92682 1.56262 6.0029L3.65142 8.0917H1.04453C0.592231 8.0917 0.222168 8.46176 0.222168 8.91406C0.222168 9.36636 0.592231 9.73643 1.04453 9.73643H3.65142L1.56262 11.8252C1.48638 11.9013 1.4259 11.9917 1.38463 12.0912C1.34337 12.1906 1.32212 12.2973 1.32212 12.405C1.32212 12.5127 1.34337 12.6193 1.38463 12.7188C1.4259 12.8183 1.48638 12.9087 1.56262 12.9848C1.88334 13.3055 2.40965 13.3055 2.73038 12.9848L5.97871 9.73643H7.62344V11.3812L4.3751 14.6295C4.05438 14.9502 4.05438 15.4765 4.3751 15.7972C4.69582 16.118 5.21391 16.118 5.53463 15.7972L7.62344 13.7084V16.3153C7.62344 16.7676 7.9935 17.1377 8.4458 17.1377C8.8981 17.1377 9.26816 16.7676 9.26816 16.3153V13.7084L11.357 15.7972C11.6777 16.118 12.1958 16.118 12.5165 15.7972C12.8372 15.4765 12.8372 14.9502 12.5165 14.6295L9.26816 11.3812V9.73643H10.9129L14.1612 12.9848C14.4819 13.3055 15.0083 13.3055 15.329 12.9848C15.4052 12.9087 15.4657 12.8183 15.507 12.7188C15.5482 12.6193 15.5695 12.5127 15.5695 12.405C15.5695 12.2973 15.5482 12.1906 15.507 12.0912C15.4657 11.9917 15.4052 11.9013 15.329 11.8252L13.2402 9.73643H15.8471C16.2994 9.73643 16.6694 9.36636 16.6694 8.91406C16.6694 8.46176 16.2994 8.0917 15.8471 8.0917Z" fill="#363636"/>
</svg>
