<svg width="16" height="21" viewBox="0 0 16 21" fill="none" xmlns="http://www.w3.org/2000/svg">
<path d="M4.00116 0.737793C3.82116 1.90779 4.11116 2.89779 4.89116 3.70779C5.39116 4.20779 5.55116 4.87779 5.36116 5.73779H6.35116C6.47116 5.18779 6.49116 4.73779 6.39116 4.28779C6.30116 3.86779 5.99116 3.36779 5.44116 2.76779C4.99116 2.20779 4.83116 1.53779 4.99116 0.737793H4.00116ZM6.49116 0.737793C6.30116 1.90779 6.60116 2.89779 7.38116 3.70779C7.88116 4.20779 8.03116 4.87779 7.85116 5.73779H8.83116C8.94116 5.18779 8.97116 4.73779 8.88116 4.28779C8.78116 3.86779 8.47116 3.36779 7.94116 2.76779C7.47116 2.20779 7.32116 1.53779 7.47116 0.737793H6.49116ZM9.02116 0.737793C8.83116 1.90779 9.13116 2.89779 9.91116 3.70779C10.4112 4.20779 10.5512 4.87779 10.3312 5.73779H11.3612C11.4912 5.18779 11.5012 4.73779 11.4112 4.28779C11.3212 3.86779 11.0012 3.36779 10.4712 2.76779C10.0012 2.20779 9.85116 1.53779 10.0012 0.737793H9.02116ZM0.941162 6.73779C0.941162 8.15779 1.33116 9.43779 2.08116 10.5778C2.81192 11.7014 3.85447 12.5876 5.08116 13.1278L1.10116 19.1778C1.00116 19.2978 0.941162 19.4878 0.941162 19.7378C0.941162 20.1478 1.10116 20.4278 1.38116 20.5778C1.50116 20.6778 1.69116 20.7378 1.94116 20.7378C2.35116 20.7378 2.63116 20.5778 2.78116 20.2978L3.77116 18.7078H10.1412C10.3512 19.2878 10.7312 19.7878 11.2212 20.1578C11.7212 20.5378 12.3012 20.7378 12.9412 20.7378C13.7712 20.7378 14.4712 20.4278 15.0712 19.8278C15.6612 19.2378 15.9412 18.5378 15.9412 17.7378C15.9412 16.9078 15.6612 16.2078 15.0712 15.6178C14.4712 15.0178 13.7712 14.7378 12.9412 14.7378C12.3012 14.7378 11.7212 14.9078 11.2212 15.2878C10.7212 15.6578 10.3612 16.1478 10.1412 16.7378H5.08116L7.05116 13.6878C7.21116 13.7378 7.50116 13.7378 7.94116 13.7378C8.38116 13.7378 8.67116 13.7378 8.83116 13.6878L9.82116 15.2378C10.2312 14.6978 10.7812 14.2778 11.4112 14.0178L10.8512 13.1278C11.9712 12.6278 12.9412 11.7378 13.7312 10.5078C14.5312 9.23779 14.9412 8.00779 14.9412 6.73779H0.941162ZM12.9412 16.7378C13.2412 16.7378 13.4712 16.8278 13.6612 17.0178C13.8512 17.2078 13.9412 17.4578 13.9412 17.7378C13.9412 18.0078 13.8512 18.2378 13.6612 18.4478C13.4812 18.6478 13.2212 18.7378 12.9412 18.7378C12.6812 18.7378 12.4412 18.6478 12.2312 18.4478C12.1384 18.3544 12.065 18.2436 12.0152 18.1218C11.9655 17.9999 11.9403 17.8694 11.9412 17.7378C11.9412 17.4378 12.0312 17.2078 12.2312 17.0178C12.4412 16.8278 12.6712 16.7378 12.9412 16.7378Z" fill="#363636"/>
</svg>
