<svg width="24" height="19" viewBox="0 0 24 19" fill="none" xmlns="http://www.w3.org/2000/svg">
<path d="M20.9917 8.23853V1.77086C20.9917 1.55644 20.9066 1.35081 20.755 1.19919C20.6033 1.04758 20.3977 0.962402 20.1833 0.962402H4.01411C3.79969 0.962402 3.59406 1.04758 3.44244 1.19919C3.29083 1.35081 3.20565 1.55644 3.20565 1.77086V8.23853C2.5624 8.23853 1.9455 8.49406 1.49065 8.94891C1.0358 9.40376 0.780273 10.0207 0.780273 10.6639V18.7485H2.59931V17.1316H21.5981V18.7485H23.4171V10.6639C23.4171 10.0207 23.1616 9.40376 22.7067 8.94891C22.2519 8.49406 21.635 8.23853 20.9917 8.23853ZM11.2902 8.23853H5.2268V6.62162C5.2268 6.4072 5.31197 6.20156 5.46359 6.04995C5.61521 5.89833 5.82084 5.81316 6.03526 5.81316H10.4818C10.6962 5.81316 10.9018 5.89833 11.0534 6.04995C11.2051 6.20156 11.2902 6.4072 11.2902 6.62162V8.23853ZM12.9072 6.62162C12.9072 6.4072 12.9923 6.20156 13.1439 6.04995C13.2956 5.89833 13.5012 5.81316 13.7156 5.81316H18.1621C18.3766 5.81316 18.5822 5.89833 18.7338 6.04995C18.8854 6.20156 18.9706 6.4072 18.9706 6.62162V8.23853H12.9072V6.62162Z" fill="#363636"/>
</svg>
