<svg width="15" height="15" viewBox="0 0 15 15" fill="none" xmlns="http://www.w3.org/2000/svg">
<path d="M13.4025 0.433838H2.51356C1.65801 0.433838 0.958008 1.13384 0.958008 1.98939V12.8783C0.958008 13.7346 1.65801 14.4338 2.51356 14.4338H7.95801V8.98939H6.40245V7.06439H7.95801V5.46995C7.95801 3.78684 8.90067 2.60462 10.8871 2.60462L12.2895 2.60617V4.63228H11.3585C10.5853 4.63228 10.2913 5.2125 10.2913 5.75073V7.06517H12.2887L11.8469 8.98939H10.2913V14.4338H13.4025C14.258 14.4338 14.958 13.7346 14.958 12.8783V1.98939C14.958 1.13384 14.258 0.433838 13.4025 0.433838Z" fill="#89B58C"/>
</svg>
