<svg width="16" height="20" viewBox="0 0 16 20" fill="none" xmlns="http://www.w3.org/2000/svg">
<path d="M4.48195 5.52047C4.63724 5.52047 4.76702 5.46798 4.87128 5.36299C4.97555 5.258 5.02768 5.12822 5.02768 4.97365V3.20741C5.02768 3.05212 4.97518 2.92197 4.87019 2.81698C4.7652 2.71199 4.63542 2.65986 4.48085 2.66059C4.32556 2.66059 4.19578 2.71272 4.09152 2.81698C3.98653 2.92197 3.93403 3.05212 3.93403 3.20741V4.97365C3.93403 5.12895 3.98653 5.25873 4.09152 5.36299C4.19651 5.46725 4.32665 5.51974 4.48195 5.52047ZM4.48195 14.3954C4.63724 14.3954 4.76702 14.3433 4.87128 14.239C4.97555 14.1348 5.02768 14.0046 5.02768 13.8486V10.1903C5.02768 10.0358 4.97518 9.90599 4.87019 9.801C4.7652 9.69601 4.63542 9.64352 4.48085 9.64352C4.32556 9.64352 4.19578 9.69601 4.09152 9.801C3.98653 9.90599 3.93403 10.0358 3.93403 10.1903V13.8497C3.93403 14.005 3.98653 14.1351 4.09152 14.2401C4.19651 14.3451 4.32665 14.3961 4.48195 14.3954ZM2.20935 19.7379C1.72377 19.7379 1.30819 19.5647 0.962597 19.2184C0.616276 18.8728 0.443115 18.4572 0.443115 17.9716V8.12882H15.7542V17.9716C15.7542 18.4601 15.581 18.8768 15.2347 19.2217C14.8891 19.5658 14.4735 19.7379 13.9879 19.7379H2.20935ZM0.443115 7.03517V1.81848C0.443115 1.3329 0.616276 0.91732 0.962597 0.571728C1.30819 0.225407 1.72377 0.0522461 2.20935 0.0522461H13.9879C14.4735 0.0522461 14.8891 0.225407 15.2347 0.571728C15.581 0.91732 15.7542 1.3329 15.7542 1.81848V7.03517H0.443115Z" fill="#363636"/>
</svg>
