<svg width="15" height="14" viewBox="0 0 15 14" fill="none" xmlns="http://www.w3.org/2000/svg">
<path d="M14.6635 7.40307C14.6635 7.8606 14.2822 8.219 13.8501 8.219H13.0367L13.0545 12.291C13.0545 12.3596 13.0495 12.4283 13.0418 12.4969V12.9061C13.0418 13.4679 12.5868 13.9229 12.0251 13.9229H11.6184C11.5904 13.9229 11.5625 13.9229 11.5345 13.9203C11.4989 13.9229 11.4634 13.9229 11.4278 13.9229H9.99163C9.42989 13.9229 8.9749 13.4679 8.9749 12.9061V10.6693C8.9749 10.2194 8.61142 9.85594 8.16151 9.85594H6.53474C6.08484 9.85594 5.72135 10.2194 5.72135 10.6693V12.9061C5.72135 13.4679 5.26637 13.9229 4.70462 13.9229H3.28374C3.24561 13.9229 3.20748 13.9203 3.16935 13.9178C3.13885 13.9203 3.10835 13.9229 3.07785 13.9229H2.67115C2.10941 13.9229 1.65442 13.4679 1.65442 12.9061V10.0593C1.65442 10.0364 1.65442 10.011 1.65696 9.98812V8.219H0.841035C0.383505 8.219 0.0276489 7.86314 0.0276489 7.40307C0.0276489 7.17431 0.103904 6.97096 0.281832 6.79303L6.79909 1.11204C6.97702 0.93411 7.18037 0.908691 7.35829 0.908691C7.53622 0.908691 7.73957 0.959528 7.89208 1.08662L14.3839 6.79303C14.5873 6.97096 14.6889 7.17431 14.6635 7.40307Z" fill="#89B58C"/>
</svg>
