<svg width="15" height="15" viewBox="0 0 15 15" fill="none" xmlns="http://www.w3.org/2000/svg">
<path fill-rule="evenodd" clip-rule="evenodd" d="M3.95825 0.353027C3.16274 0.353027 2.39979 0.668966 1.83717 1.23137C1.27454 1.79378 0.958313 2.55661 0.958008 3.35212V11.3528C0.958008 12.1485 1.2741 12.9116 1.83676 13.4743C2.39942 14.0369 3.16254 14.353 3.95825 14.353H11.9589C12.7544 14.3527 13.5173 14.0365 14.0797 13.4739C14.6421 12.9112 14.958 12.1483 14.958 11.3528V3.35212C14.9577 2.55681 14.6416 1.79415 14.0793 1.23178C13.5169 0.669406 12.7542 0.353333 11.9589 0.353027H3.95825ZM12.8219 3.35673C12.8219 3.58591 12.7308 3.80571 12.5688 3.96776C12.4067 4.12982 12.1869 4.22086 11.9578 4.22086C11.7286 4.22086 11.5088 4.12982 11.3467 3.96776C11.1847 3.80571 11.0936 3.58591 11.0936 3.35673C11.0936 3.12755 11.1847 2.90776 11.3467 2.7457C11.5088 2.58365 11.7286 2.4926 11.9578 2.4926C12.1869 2.4926 12.4067 2.58365 12.5688 2.7457C12.7308 2.90776 12.8219 3.12755 12.8219 3.35673ZM7.95974 4.95594C7.32414 4.95594 6.71458 5.20843 6.26515 5.65786C5.81571 6.10729 5.56323 6.71686 5.56323 7.35245C5.56323 7.98804 5.81571 8.59761 6.26515 9.04704C6.71458 9.49647 7.32414 9.74896 7.95974 9.74896C8.59533 9.74896 9.20489 9.49647 9.65432 9.04704C10.1038 8.59761 10.3562 7.98804 10.3562 7.35245C10.3562 6.71686 10.1038 6.10729 9.65432 5.65786C9.20489 5.20843 8.59533 4.95594 7.95974 4.95594ZM4.4099 7.35245C4.4099 6.41128 4.78378 5.50866 5.44929 4.84316C6.1148 4.17765 7.01742 3.80377 7.95858 3.80377C8.89975 3.80377 9.80237 4.17765 10.4679 4.84316C11.1334 5.50866 11.5073 6.41128 11.5073 7.35245C11.5073 8.29362 11.1334 9.19624 10.4679 9.86175C9.80237 10.5273 8.89975 10.9011 7.95858 10.9011C7.01742 10.9011 6.1148 10.5273 5.44929 9.86175C4.78378 9.19624 4.4099 8.29362 4.4099 7.35245Z" fill="#89B58C"/>
</svg>
