<svg width="15" height="12" viewBox="0 0 15 12" fill="none" xmlns="http://www.w3.org/2000/svg">
<path d="M13.2034 0.0637207H1.49162C0.686436 0.0637207 0.0349688 0.722508 0.0349688 1.52769L0.0276489 10.3115C0.0276489 11.1167 0.686436 11.7755 1.49162 11.7755H13.2034C14.0086 11.7755 14.6674 11.1167 14.6674 10.3115V1.52769C14.6674 0.722508 14.0086 0.0637207 13.2034 0.0637207ZM12.9106 3.17466L7.73546 6.41003C7.50122 6.55643 7.19379 6.55643 6.95955 6.41003L1.78441 3.17466C1.71102 3.13346 1.64674 3.07779 1.59548 3.01103C1.54422 2.94426 1.50704 2.86779 1.48619 2.78625C1.46533 2.7047 1.46124 2.61977 1.47417 2.53659C1.48709 2.45342 1.51675 2.37373 1.56136 2.30235C1.60598 2.23097 1.66461 2.16939 1.73371 2.12133C1.80281 2.07327 1.88094 2.03972 1.96338 2.02273C2.04582 2.00574 2.13085 2.00565 2.21332 2.02248C2.2958 2.0393 2.374 2.07268 2.4432 2.1206L7.3475 5.18762L12.2518 2.1206C12.321 2.07268 12.3992 2.0393 12.4817 2.02248C12.5642 2.00565 12.6492 2.00574 12.7316 2.02273C12.8141 2.03972 12.8922 2.07327 12.9613 2.12133C13.0304 2.16939 13.089 2.23097 13.1336 2.30235C13.1783 2.37373 13.2079 2.45342 13.2208 2.53659C13.2338 2.61977 13.2297 2.7047 13.2088 2.78625C13.188 2.86779 13.1508 2.94426 13.0995 3.01103C13.0483 3.07779 12.984 3.13346 12.9106 3.17466Z" fill="#89B58C"/>
</svg>
