<svg width="17" height="15" viewBox="0 0 17 15" fill="none" xmlns="http://www.w3.org/2000/svg">
<path fill-rule="evenodd" clip-rule="evenodd" d="M11.6948 0.478516C12.159 0.478531 12.614 0.607788 13.0089 0.851806C13.4038 1.09582 13.7229 1.44496 13.9305 1.86012L15.0855 4.16918C15.2888 4.08585 15.4888 3.99585 15.6855 3.89919C15.8833 3.8004 16.1122 3.78424 16.3219 3.85425C16.5316 3.92426 16.705 4.07471 16.8037 4.27251C16.9025 4.47031 16.9187 4.69925 16.8487 4.90897C16.7787 5.11868 16.6282 5.292 16.4304 5.39079C16.2301 5.47995 16.0287 5.56662 15.8263 5.65078L16.6271 7.2532C16.8009 7.60065 16.8913 7.98382 16.8912 8.37232V10.4781C16.8918 10.8299 16.8178 11.1778 16.6741 11.4989C16.5305 11.8201 16.3205 12.1072 16.0579 12.3413V13.3946C16.0579 13.7261 15.9263 14.044 15.6918 14.2784C15.4574 14.5128 15.1395 14.6445 14.808 14.6445C14.4765 14.6445 14.1586 14.5128 13.9242 14.2784C13.6898 14.044 13.5581 13.7261 13.5581 13.3946V12.9779H3.55852V13.3946C3.55852 13.7261 3.42683 14.044 3.19242 14.2784C2.95801 14.5128 2.64008 14.6445 2.30858 14.6445C1.97707 14.6445 1.65915 14.5128 1.42474 14.2784C1.19033 14.044 1.05864 13.7261 1.05864 13.3946V12.3413C0.546994 11.883 0.225342 11.218 0.225342 10.4781V8.37149C0.225498 7.98355 0.315934 7.60098 0.489496 7.25404L1.28363 5.66411C1.0828 5.57911 0.883645 5.48912 0.687821 5.39162C0.491022 5.29155 0.341428 5.11815 0.271284 4.90881C0.201139 4.69947 0.216063 4.47095 0.312838 4.27251C0.361718 4.17454 0.429426 4.08716 0.512092 4.01537C0.594759 3.94358 0.690763 3.88878 0.794617 3.85411C0.898471 3.81944 1.00814 3.80558 1.11735 3.81331C1.22657 3.82105 1.33319 3.85023 1.43112 3.89919C1.62778 3.99669 1.8286 4.08585 2.03109 4.16918L3.18604 1.86095C3.39357 1.44564 3.71265 1.09633 4.10754 0.85216C4.50242 0.60799 4.95749 0.478609 5.42177 0.478516H11.6948ZM4.80846 7.97817C4.47696 7.97817 4.15903 8.10986 3.92462 8.34427C3.69021 8.57868 3.55852 8.89661 3.55852 9.22811C3.55852 9.55962 3.69021 9.87755 3.92462 10.112C4.15903 10.3464 4.47696 10.4781 4.80846 10.4781C5.13997 10.4781 5.4579 10.3464 5.69231 10.112C5.92672 9.87755 6.05841 9.55962 6.05841 9.22811C6.05841 8.89661 5.92672 8.57868 5.69231 8.34427C5.4579 8.10986 5.13997 7.97817 4.80846 7.97817ZM12.3081 7.97817C11.9766 7.97817 11.6587 8.10986 11.4243 8.34427C11.1899 8.57868 11.0582 8.89661 11.0582 9.22811C11.0582 9.55962 11.1899 9.87755 11.4243 10.112C11.6587 10.3464 11.9766 10.4781 12.3081 10.4781C12.6396 10.4781 12.9576 10.3464 13.192 10.112C13.4264 9.87755 13.5581 9.55962 13.5581 9.22811C13.5581 8.89661 13.4264 8.57868 13.192 8.34427C12.9576 8.10986 12.6396 7.97817 12.3081 7.97817ZM11.6948 2.14511H5.42177C5.28462 2.14509 5.14958 2.17892 5.02864 2.24361C4.90769 2.30829 4.80459 2.40183 4.72847 2.51592L4.6768 2.60592L3.61852 4.72082C4.90846 5.10747 6.64671 5.47829 8.55829 5.47829C10.3432 5.47829 11.9756 5.15497 13.2331 4.79748L13.4972 4.72082L12.4398 2.60592C12.3785 2.48327 12.2878 2.37765 12.1759 2.29843C12.064 2.21921 11.9342 2.16883 11.7981 2.15177L11.6956 2.14511H11.6948Z" fill="#363636"/>
</svg>
