<svg width="16" height="16" viewBox="0 0 16 16" fill="none" xmlns="http://www.w3.org/2000/svg">
<path d="M1.63093 6.5838C3.36254 10.3547 6.43938 13.3434 10.259 14.9647L10.8723 15.238C11.5515 15.5404 12.3156 15.5934 13.0301 15.3877C13.7445 15.1819 14.3634 14.7306 14.7777 14.1133L15.5796 12.9191C15.705 12.7318 15.7558 12.5043 15.7219 12.2815C15.688 12.0586 15.5719 11.8565 15.3965 11.715L12.6798 9.52325C12.5852 9.44697 12.4761 9.3906 12.3592 9.35752C12.2422 9.32444 12.1198 9.31534 11.9993 9.33075C11.8787 9.34617 11.7625 9.38579 11.6577 9.44723C11.5528 9.50868 11.4615 9.59067 11.3891 9.68831L10.5485 10.8221C8.39068 9.75635 6.64407 8.00943 5.57876 5.85142L6.71161 5.01081C6.80924 4.93844 6.89124 4.84708 6.95268 4.74223C7.01412 4.63737 7.05374 4.52118 7.06916 4.40063C7.08457 4.28009 7.07547 4.15766 7.04239 4.04072C7.00931 3.92378 6.95294 3.81473 6.87666 3.72012L4.68493 1.00345C4.54341 0.827983 4.34132 0.711866 4.11845 0.677977C3.89559 0.644089 3.66811 0.694884 3.48083 0.820358L2.27853 1.6267C1.65745 2.0432 1.20439 2.66666 1.00007 3.38601C0.795744 4.10536 0.85342 4.87389 1.16282 5.55468L1.63093 6.5838Z" fill="#89B58C"/>
</svg>
