<svg width="20" height="15" viewBox="0 0 20 15" fill="none" xmlns="http://www.w3.org/2000/svg">
<path d="M5.00002 7V8H15V7C15 6.20556 15.3151 5.44356 15.8762 4.88115C16.4373 4.31874 17.1986 4.00185 17.993 4C17.9919 3.73848 17.9685 3.47754 17.923 3.22C17.7687 2.44401 17.3877 1.73121 16.8283 1.17175C16.2688 0.612295 15.556 0.231317 14.78 0.0770001C14.394 1.41561e-07 13.93 0 13 0H7.00002C6.07002 0 5.60602 1.41561e-07 5.22002 0.0770001C4.44403 0.231317 3.73122 0.612295 3.17177 1.17175C2.61231 1.73121 2.23134 2.44401 2.07702 3.22C2.03156 3.47754 2.00814 3.73848 2.00702 4C2.80146 4.00185 3.56272 4.31874 4.12382 4.88115C4.68491 5.44356 5.00002 6.20556 5.00002 7Z" fill="black"/>
<path d="M16.444 13H3.556C3.28473 12.9998 3.01434 12.9689 2.75 12.908V14C2.75 14.1989 2.67098 14.3897 2.53033 14.5303C2.38968 14.671 2.19891 14.75 2 14.75C1.80109 14.75 1.61032 14.671 1.46967 14.5303C1.32902 14.3897 1.25 14.1989 1.25 14V12.151C0.857809 11.8174 0.542869 11.4025 0.327023 10.9351C0.111177 10.4677 -0.000410119 9.95887 1.13262e-06 9.444V7C1.13262e-06 6.46957 0.210715 5.96086 0.585787 5.58579C0.96086 5.21071 1.46957 5 2 5C2.53043 5 3.03914 5.21071 3.41421 5.58579C3.78929 5.96086 4 6.46957 4 7V8.2C4 8.41217 4.08429 8.61566 4.23432 8.76569C4.38434 8.91571 4.58783 9 4.8 9H15.2C15.4122 9 15.6157 8.91571 15.7657 8.76569C15.9157 8.61566 16 8.41217 16 8.2V7C16 6.46957 16.2107 5.96086 16.5858 5.58579C16.9609 5.21071 17.4696 5 18 5C18.5304 5 19.0391 5.21071 19.4142 5.58579C19.7893 5.96086 20 6.46957 20 7V9.444C20.0004 9.95887 19.8888 10.4677 19.673 10.9351C19.4571 11.4025 19.1422 11.8174 18.75 12.151V14C18.75 14.1989 18.671 14.3897 18.5303 14.5303C18.3897 14.671 18.1989 14.75 18 14.75C17.8011 14.75 17.6103 14.671 17.4697 14.5303C17.329 14.3897 17.25 14.1989 17.25 14V12.908C16.9857 12.9689 16.7153 12.9998 16.444 13Z" fill="black"/>
</svg>
