<svg width="16" height="13" viewBox="0 0 16 13" fill="none" xmlns="http://www.w3.org/2000/svg">
<path d="M11.4376 8.61333C11.5238 8.69552 11.5927 8.79394 11.6406 8.90291C11.6885 9.01188 11.7144 9.12926 11.7167 9.24827C11.719 9.36728 11.6977 9.48558 11.6541 9.59633C11.6105 9.70708 11.5454 9.80811 11.4625 9.89357C11.3797 9.97904 11.2807 10.0473 11.1714 10.0943C11.062 10.1414 10.9445 10.1663 10.8254 10.1677C10.7064 10.1691 10.5883 10.1469 10.4779 10.1024C10.3675 10.0579 10.267 9.99205 10.1821 9.90854C10.1527 9.88006 10.122 9.85297 10.0901 9.82736C9.91929 9.69565 9.72995 9.58988 9.52822 9.51348C9.11963 9.35113 8.62626 9.26093 8.10403 9.26093C7.27965 9.26093 6.54095 9.48732 6.11794 9.82826C6.08456 9.85532 6.0539 9.88148 6.02594 9.90854C5.94111 9.99205 5.8406 10.0579 5.73019 10.1024C5.61977 10.1469 5.50165 10.1691 5.38262 10.1677C5.2636 10.1663 5.14602 10.1414 5.03668 10.0943C4.92734 10.0473 4.82839 9.97904 4.74554 9.89357C4.66269 9.80811 4.59758 9.70708 4.55396 9.59633C4.51034 9.48558 4.48907 9.36728 4.49138 9.24827C4.49369 9.12926 4.51954 9.01188 4.56743 8.90291C4.61532 8.79394 4.68431 8.69552 4.77042 8.61333C4.83897 8.54749 4.91113 8.48345 4.98689 8.42212C5.75445 7.80609 6.89181 7.45703 8.10403 7.45703C8.84995 7.45703 9.5688 7.58872 10.193 7.83585C10.5808 7.98918 10.928 8.18671 11.2212 8.42212C11.2969 8.48345 11.3691 8.54749 11.4376 8.61333Z" fill="#363636"/>
<path d="M13.708 6.27476C13.7931 6.35876 13.8607 6.45885 13.9068 6.56921C13.9528 6.67957 13.9765 6.798 13.9764 6.9176C13.9763 7.03719 13.9524 7.15557 13.9061 7.26585C13.8598 7.37613 13.7921 7.4761 13.7068 7.55995C13.6215 7.64379 13.5204 7.70984 13.4094 7.75425C13.2983 7.79866 13.1795 7.82054 13.06 7.81862C12.9404 7.8167 12.8224 7.79101 12.7128 7.74306C12.6033 7.6951 12.5043 7.62584 12.4218 7.5393C12.3324 7.44893 12.2384 7.36313 12.1404 7.28224C11.9236 7.10618 11.6921 6.94897 11.4486 6.81232C11.1797 6.66112 10.8984 6.53289 10.608 6.42899C10.2974 6.31548 9.9787 6.22563 9.65459 6.16021C9.3164 6.0903 8.97372 6.04418 8.62907 6.02221C8.1055 5.98782 7.5798 6.00534 7.05968 6.07453C6.72406 6.11993 6.39196 6.18833 6.06573 6.27927C5.75747 6.36656 5.45601 6.47629 5.16377 6.60758C4.8959 6.73011 4.63832 6.87399 4.39351 7.03781C4.28121 7.11383 4.17256 7.1951 4.0679 7.28134C3.9698 7.36251 3.87587 7.4486 3.7865 7.5393C3.70453 7.62798 3.60559 7.6993 3.49554 7.74903C3.38549 7.79876 3.26658 7.82589 3.14585 7.8288C3.02513 7.83171 2.90504 7.81034 2.79273 7.76597C2.68041 7.7216 2.57815 7.65513 2.49201 7.5705C2.40586 7.48586 2.33759 7.38479 2.29124 7.27328C2.2449 7.16177 2.22141 7.04208 2.22219 6.92132C2.22296 6.80056 2.24798 6.68119 2.29575 6.57028C2.34353 6.45937 2.41309 6.35918 2.50031 6.27566C2.6311 6.14307 2.77 6.0159 2.91701 5.89323C3.37384 5.51997 3.87786 5.20852 4.41606 4.96693C4.791 4.79572 5.17883 4.65428 5.57597 4.54391C5.98387 4.42875 6.39954 4.34314 6.81976 4.28776C7.24543 4.22989 7.67455 4.20096 8.10414 4.20117C8.53368 4.20141 8.96274 4.23004 9.38852 4.28686C9.80883 4.3434 10.2247 4.42899 10.6332 4.54301C11.0294 4.65535 11.4168 4.79674 11.7922 4.96603C12.1531 5.13092 12.5 5.32488 12.8295 5.54598C13.1454 5.75961 13.4397 6.0037 13.708 6.27476Z" fill="#363636"/>
<path d="M15.5407 3.04966C15.6925 3.22898 15.7683 3.46044 15.752 3.69481C15.7358 3.92917 15.6287 4.14794 15.4536 4.30458C15.2786 4.46122 15.0493 4.54336 14.8145 4.53354C14.5798 4.52371 14.3582 4.42269 14.1968 4.25197C14.0668 4.10706 13.9296 3.96888 13.7855 3.83797C13.6355 3.70125 13.479 3.57182 13.3165 3.45013C12.9711 3.19473 12.6045 2.96932 12.2206 2.77637C11.8124 2.57162 11.3876 2.40175 10.9507 2.26857C10.4961 2.12708 10.031 2.02152 9.55987 1.95289C9.0779 1.88186 8.5913 1.84689 8.10412 1.84827C7.61696 1.84822 7.13044 1.88349 6.64838 1.95379C6.1775 2.02391 5.71258 2.12944 5.25757 2.26948C4.82177 2.40523 4.39742 2.57533 3.98852 2.77818C3.79309 2.87597 3.602 2.9822 3.41578 3.09657C3.23611 3.20672 3.06156 3.325 2.89265 3.45103C2.73018 3.57271 2.57366 3.70214 2.42363 3.83887C2.27925 3.97005 2.14167 4.10853 2.01144 4.25377C1.85121 4.42943 1.6281 4.53472 1.39064 4.54674C1.15318 4.55875 0.920582 4.47651 0.743441 4.31792C0.566299 4.15932 0.458945 3.9372 0.44473 3.69986C0.430515 3.46252 0.51059 3.22917 0.667535 3.05057C1.01397 2.66641 1.39701 2.3169 1.81121 2.00701C2.46403 1.52295 3.17717 1.12605 3.9326 0.826354C4.4549 0.616635 4.99332 0.449529 5.54258 0.326673C6.10149 0.199742 6.66926 0.115616 7.24096 0.0750288C8.1029 0.0125578 8.96909 0.044314 9.82415 0.169734C10.3867 0.253318 10.942 0.37935 11.4855 0.546749C12.0153 0.711624 12.531 0.918528 13.0279 1.16549C13.5076 1.40614 13.9657 1.68768 14.397 2.00701C14.8127 2.31553 15.1961 2.66515 15.5416 3.05057M9.90803 11.1925C9.90803 11.6709 9.71797 12.1297 9.37968 12.468C9.04138 12.8063 8.58255 12.9964 8.10412 12.9964C7.6257 12.9964 7.16687 12.8063 6.82857 12.468C6.49028 12.1297 6.30022 11.6709 6.30022 11.1925C6.30022 10.7141 6.49028 10.2552 6.82857 9.91693C7.16687 9.57863 7.6257 9.38858 8.10412 9.38858C8.58255 9.38858 9.04138 9.57863 9.37968 9.91693C9.71797 10.2552 9.90803 10.7141 9.90803 11.1925Z" fill="#363636"/>
</svg>
